<?xml version="1.0" encoding="UTF-8" standalone="no"?>
<!DOCTYPE svg PUBLIC "-//W3C//DTD SVG 20010904//EN" "http://www.w3.org/TR/2001/REC-SVG-20010904/DTD/svg10.dtd">
<svg version="1.0" xmlns="http://www.w3.org/2000/svg" width="100.000000pt" height="100.000000pt" viewBox="0 0 100.000000 100.000000" preserveAspectRatio="xMidYMid meet"><script xmlns="" id="dashlane_webauthn" name="forward_webauthn_ready"/><script xmlns="" id="dashlane_webauthn_vendors"/>

<g transform="translate(0.000000,100.000000) scale(0.100000,-0.100000)" fill="#000000" stroke="none">
<path d="M780 895 c-25 -27 -12 -35 14 -9 14 14 22 34 13 34 -2 0 -14 -11 -27 -25z"/>
<path d="M559 829 c-8 -4 -4 -9 10 -14 11 -3 21 -10 21 -14 0 -9 -60 -91 -67 -91 -3 0 2 10 11 23 28 38 39 60 28 53 -6 -4 -25 -29 -43 -56 -17 -27 -38 -51 -46 -54 -7 -3 -18 -16 -23 -28 -6 -17 -9 1 -9 65 -1 101 -4 103 -77 57 l-48 -30 3 -56 c2 -44 0 -55 -11 -49 -10 6 -11 5 0 -6 8 -8 12 -46 12 -110 0 -82 -3 -100 -21 -123 -11 -14 -24 -26 -29 -26 -4 0 -18 21 -31 47 -34 70 -32 152 5 226 32 65 30 84 -4 37 -47 -65 -63 -181 -39 -276 10 -37 14 -42 26 -32 11 9 16 9 22 -1 5 -8 38 -12 97 -13 l89 -2 5 115 5 114 54 -65 c29 -36 78 -91 107 -122 l54 -58 -33 -1 c-17 0 -68 -1 -112 -1 -44 0 -60 -2 -35 -5 64 -5 180 -34 180 -44 0 -5 -4 -9 -9 -9 -4 0 -25 -11 -45 -25 -32 -22 -44 -24 -112 -20 -66 3 -83 8 -127 37 -88 58 -110 69 -122 57 -7 -7 8 -27 48 -65 43 -40 72 -58 114 -70 151 -44 310 29 375 171 32 72 32 200 0 270 -26 55 -70 107 -84 99 -5 -4 1 -18 15 -33 61 -65 82 -169 52 -259 -9 -29 -20 -54 -24 -57 -9 -5 -78 80 -155 188 l-49 68 34 36 c64 67 129 113 162 114 l32 1 -31 7 c-17 4 -36 11 -43 15 -19 12 -119 23 -132 15z m162 -116 c13 -16 12 -17 -3 -4 -10 7 -18 15 -18 17 0 8 8 3 21 -13z"/>
<path d="M77 333 c24 -2 62 -2 85 0 24 2 5 4 -42 4 -47 0 -66 -2 -43 -4z"/>
<path d="M408 333 c7 -3 16 -2 19 1 4 3 -2 6 -13 5 -11 0 -14 -3 -6 -6z"/>
</g>
</svg>